<svg width="390" height="382" viewBox="0 0 390 382" fill="none" xmlns="http://www.w3.org/2000/svg">
<g clip-path="url(#clip0_107_18)">
<ellipse cx="191.5" cy="191.05" rx="191.5" ry="191" fill="white"/>
<line x1="192.369" y1="0.0502929" x2="192.369" y2="382.31" stroke="black"/>
<line x1="135.277" y1="8.81543" x2="135.277" y2="373.584" stroke="black"/>
<line x1="246.706" y1="373.916" x2="246.706" y2="8.29922" stroke="black"/>
<line x1="56.5758" y1="55.766" x2="326.789" y2="325.979" stroke="black"/>
<line x1="55.6236" y1="325.658" x2="325.934" y2="55.3478" stroke="black"/>
<line x1="374.287" y1="135.674" x2="8.46262" y2="135.674" stroke="black"/>
<line y1="190.68" x2="382.742" y2="190.68" stroke="black"/>
<line x1="8.80625" y1="246.863" x2="374.287" y2="246.863" stroke="black"/>
<path d="M382.242 191.18C382.242 296.461 296.787 381.81 191.371 381.81C85.9553 381.81 0.5 296.461 0.5 191.18C0.5 85.8987 85.9553 0.550293 191.371 0.550293C296.787 0.550293 382.242 85.8987 382.242 191.18Z" stroke="black"/>
<path d="M270.704 191.106C270.704 235.37 234.893 271.251 190.721 271.251C146.548 271.251 110.737 235.37 110.737 191.106C110.737 146.841 146.548 110.96 190.721 110.96C234.893 110.96 270.704 146.841 270.704 191.106Z" stroke="black"/>
<path d="M329.088 191.434C329.088 268.023 267.032 330.109 190.483 330.109C113.935 330.109 51.8791 268.023 51.8791 191.434C51.8791 114.845 113.935 52.7583 190.483 52.7583C267.032 52.7583 329.088 114.845 329.088 191.434Z" stroke="black"/>
<rect x="77.5205" y="76.7753" width="227.973" height="228.667" rx="2.5" stroke="black"/>
<rect x="95.2163" y="52.7583" width="191.509" height="277.351" rx="5.5" stroke="black"/>
<rect x="51.8791" y="95.5896" width="277.209" height="191.923" rx="5.5" stroke="black"/>
</g>
<defs>
<clipPath id="clip0_107_18">
<rect width="390" height="382" fill="white"/>
</clipPath>
</defs>
</svg>
